<svg xmlns="http://www.w3.org/2000/svg" version="1.1" xmlns:xlink="http://www.w3.org/1999/xlink" xmlns:svgjs="http://svgjs.dev/svgjs" width="1500" height="1500" viewBox="0 0 1500 1500"><rect width="1500" height="1500" fill="#dfdad6"></rect><g transform="matrix(0.6666666666666666,0,0,0.6666666666666666,249.51052999698726,398.61808367071524)"><svg viewBox="0 0 351 247" data-background-color="#dfdad6" preserveAspectRatio="xMidYMid meet" height="1055" width="1500" xmlns="http://www.w3.org/2000/svg" xmlns:xlink="http://www.w3.org/1999/xlink"><g id="tight-bounds" transform="matrix(1,0,0,1,0.17180397105747147,-0.09999999999999432)"><svg viewBox="0 0 350.65639205788506 247.2" height="247.2" width="350.65639205788506"><g><svg viewBox="0 0 395.52 278.8272115223842" height="247.2" width="350.65639205788506"><g transform="matrix(1,0,0,1,0,207.4611928899356)"><svg viewBox="0 0 395.52 71.36601863244859" height="71.36601863244859" width="395.52"><g id="textblocktransform"><svg viewBox="0 0 395.52 71.36601863244859" height="71.36601863244859" width="395.52" id="textblock"><g><svg viewBox="0 0 395.52 71.36601863244859" height="71.36601863244859" width="395.52"><g transform="matrix(1,0,0,1,0,0)"><svg width="395.52" viewBox="1.46 -38.38 277.77000000000004 50.120000000000005" height="71.36601863244859" data-palette-color="url(#ba16ce7e-e68c-403c-947e-7bab3d3d8f5a)"></svg></g></svg></g></svg></g></svg></g><g transform="matrix(1,0,0,1,110.87720776970612,0)"><svg viewBox="0 0 173.76558446058775 173.76558446058775" height="173.76558446058775" width="173.76558446058775"><g><svg></svg></g><g id="icon-0"><svg viewBox="0 0 173.76558446058775 173.76558446058775" height="173.76558446058775" width="173.76558446058775"><g><path d="M0 86.883c0-47.984 38.899-86.883 86.883-86.883 47.984 0 86.883 38.899 86.883 86.883 0 47.984-38.899 86.883-86.883 86.883-47.984 0-86.883-38.899-86.883-86.883zM86.883 167.33c44.43 0 80.447-36.017 80.447-80.447 0-44.43-36.017-80.447-80.447-80.447-44.43 0-80.447 36.017-80.447 80.447 0 44.43 36.017 80.447 80.447 80.447z" data-fill-palette-color="accent" fill="#198d11" stroke="transparent"></path><ellipse rx="86.01396430799093" ry="86.01396430799093" cx="86.88279223029387" cy="86.88279223029387" fill="#198d11" stroke="transparent" stroke-width="0" fill-opacity="1" data-fill-palette-color="accent"></ellipse></g><g transform="matrix(1,0,0,1,36.603880280118354,39.683914344444645)"><svg viewBox="0 0 100.55782390035104 94.39775577169846" height="94.39775577169846" width="100.55782390035104"><g><svg xmlns:dc="http://purl.org/dc/elements/1.1/" xmlns:cc="http://creativecommons.org/ns#" xmlns:rdf="http://www.w3.org/1999/02/22-rdf-syntax-ns#" xmlns:svg="http://www.w3.org/2000/svg" xmlns="http://www.w3.org/2000/svg" xmlns:sodipodi="http://sodipodi.sourceforge.net/DTD/sodipodi-0.dtd" xmlns:inkscape="http://www.inkscape.org/namespaces/inkscape" preserveAspectRatio="xMidYMid" viewBox="0 0 62.75 58.906" version="1.1" x="0" y="0" height="94.39775577169846" width="100.55782390035104" class="icon-dxe-0" data-fill-palette-color="quaternary" id="dxe-0"><path d="M23.813 0C22.985 0 22.75 0.671 22.75 1.5V7C22.75 7.183 22.784 7.37 22.844 7.531L19.78 8.094C19.065 8.22 18.75 8.834 18.75 9.563V19H11.156L8.937 9.938C8.714 8.428 6.597 6.967 4.5 6.967 2.026 6.969 0 9.01 0 11.532 0 13.081 0.778 14.522 2.063 15.375A1.476 1.476 0 0 0 4.124 14.969C4.583 14.279 4.408 13.333 3.719 12.875A1.62 1.62 0 0 1 3 11.531C3 10.651 3.666 9.97 4.5 9.97 5.181 9.969 5.811 10.369 6.031 10.594L14.906 47.188 15.594 50.78C15.729 51.487 16.344 52 17.063 52H20.03C20.211 55.846 23.391 58.906 27.281 58.906S34.351 55.846 34.531 52H43.125C43.304 55.846 46.485 58.906 50.375 58.906S57.445 55.846 57.625 52H60.813C61.64 52 62.75 51.329 62.75 50.5V40.5C62.75 39.671 61.64 39 60.813 39H54L62.594 21.156A1.54 1.54 0 0 0 62.5 19.688 1.5 1.5 0 0 0 61.219 19H54.53L49.72 8.125A1.53 1.53 0 0 0 48.875 7.313 1.5 1.5 0 0 0 47.719 7.375L38.656 11.531C38.716 11.37 38.75 11.183 38.75 11V1.5C38.75 0.671 37.64 0 36.813 0zM25.75 3H35.75V5.406A1.4 1.4 0 0 0 35.094 5.344L25.75 7.03zM33.438 8.719L30.844 18H21.75V10.813zM47.594 10.719L51.25 19H41.344L39.094 14.625zM35.75 11A1.48 1.48 0 0 0 36.75 12.406L36.406 12.562A1.48 1.48 0 0 0 35.625 13.439C35.492 13.825 35.498 14.26 35.688 14.625L37.968 19H33.689zM12.156 22H58.844L50.687 39H16.313zM16.97 42H59.75V49H57.125C56.06 46.312 53.438 44.406 50.375 44.406 47.302 44.406 44.683 46.328 43.625 49.031A1.6 1.6 0 0 0 43.313 49H34.03C32.966 46.312 30.344 44.406 27.281 44.406 24.208 44.406 21.59 46.328 20.531 49.031 20.461 49.021 20.385 49 20.313 49H18.438L17.813 46.375zM27.28 47.406C29.631 47.406 31.563 49.306 31.563 51.656S29.63 55.906 27.28 55.906A4.247 4.247 0 0 1 23.031 51.656C23.031 49.306 24.931 47.406 27.281 47.406M50.375 47.406C52.724 47.406 54.656 49.306 54.656 51.656S52.724 55.906 50.375 55.906A4.247 4.247 0 0 1 46.125 51.656C46.125 49.306 48.025 47.406 50.375 47.406" fill="#dfdad6" fill-rule="evenodd" data-fill-palette-color="quaternary"></path></svg></g></svg></g></svg></g></svg></g><g></g></svg></g><defs></defs><mask id="ac5c305c-9588-425b-a270-51935c5987b8"><g id="SvgjsG1379"><svg viewBox="0 0 350.65639205788506 247.2" height="247.2" width="350.65639205788506"><g><svg viewBox="0 0 395.52 278.8272115223842" height="247.2" width="350.65639205788506"><g transform="matrix(1,0,0,1,0,207.4611928899356)"><svg viewBox="0 0 395.52 71.36601863244859" height="71.36601863244859" width="395.52"><g id="SvgjsG1378"><svg viewBox="0 0 395.52 71.36601863244859" height="71.36601863244859" width="395.52" id="SvgjsSvg1377"><g><svg viewBox="0 0 395.52 71.36601863244859" height="71.36601863244859" width="395.52"><g transform="matrix(1,0,0,1,0,0)"><svg width="395.52" viewBox="1.46 -38.38 277.77000000000004 50.120000000000005" height="71.36601863244859" data-palette-color="url(#ba16ce7e-e68c-403c-947e-7bab3d3d8f5a)"><path d="M9.18-2.27L9.18-2.27Q8.13-4.25 7.03-7.29 5.93-10.33 4.93-13.82 3.93-17.31 3.15-20.72 2.37-24.12 1.92-26.9 1.46-29.69 1.46-31.25L1.46-31.25Q1.46-31.88 1.73-32.25L1.73-32.25Q2.29-33.03 3.11-33.87 3.93-34.72 5.05-35.64L5.05-35.64Q5.42-35.94 5.74-35.94L5.74-35.94Q6.05-35.94 6.37-35.64L6.37-35.64Q7.52-34.72 8.33-33.87 9.13-33.03 9.69-32.25L9.69-32.25Q9.96-31.88 9.96-31.18L9.96-31.18 9.96-31.27Q9.96-29.66 10.39-26.92 10.82-24.17 11.51-20.91 12.21-17.65 13.02-14.49 13.84-11.33 14.65-8.86L14.65-8.86 14.79-8.86Q16.11-12.13 17.26-15.97 18.41-19.8 19.41-23.8 20.41-27.81 21.29-31.59L21.29-31.59Q21.56-32.69 22.2-33.12 22.85-33.54 24.24-33.54L24.24-33.54 27.17-33.54Q28.42-33.54 29.03-33.18 29.64-32.81 29.91-31.59L29.91-31.59Q30.54-28.76 31.35-25.61 32.15-22.46 33.02-19.35 33.89-16.24 34.78-13.53 35.67-10.82 36.47-8.86L36.47-8.86 36.62-8.86Q37.65-11.18 38.46-14.33 39.28-17.48 39.86-20.76 40.43-24.05 40.73-26.86 41.04-29.66 41.04-31.27L41.04-31.27 41.04-31.18Q41.04-31.88 41.28-32.25L41.28-32.25Q42.46-33.86 44.51-35.64L44.51-35.64Q44.9-35.94 45.19-35.94L45.19-35.94Q45.46-35.94 45.83-35.64L45.83-35.64Q46.92-34.72 47.71-33.87 48.49-33.03 49.05-32.25L49.05-32.25Q49.29-31.86 49.29-31.2L49.29-31.2Q49.29-29.15 48.83-26.27 48.36-23.39 47.57-20.13 46.78-16.87 45.79-13.62 44.8-10.38 43.71-7.56 42.63-4.74 41.58-2.78L41.58-2.78Q40.7-1.15 40-0.57 39.31 0 38.01 0L38.01 0 35.01 0Q33.91 0 33.17-0.49 32.42-0.98 31.62-2.32L31.62-2.32Q31.01-3.34 30.21-5.2 29.42-7.06 28.63-9.24 27.83-11.43 27.2-13.48 26.56-15.53 26.27-16.94L26.27-16.94Q25.93-18.55 25.7-20.06 25.46-21.56 25.42-22.41L25.42-22.41 25.22-22.41Q25.17-21.56 24.91-20.06 24.66-18.55 24.29-16.94L24.29-16.94Q23.93-15.33 23.32-13.26 22.71-11.18 21.97-9.08 21.24-6.98 20.51-5.2 19.78-3.42 19.14-2.37L19.14-2.37Q18.43-1.17 17.59-0.59 16.75 0 15.26 0L15.26 0 12.5 0Q11.21 0 10.55-0.46 9.89-0.93 9.18-2.27ZM49.29-31.27L49.29-31.27 49.29-31.18 49.29-31.2Q49.29-31.25 49.29-31.27ZM1.46-31.18L1.46-31.27 1.46-31.25 1.46-31.18ZM62.77 0.61L62.77 0.61Q54.07 0.61 54.07-9.91L54.07-9.91 54.05-22.31Q54.05-22.9 54.29-23.22L54.29-23.22Q55.32-24.56 57.3-26.12L57.3-26.12Q57.64-26.37 57.91-26.37L57.91-26.37Q58.23-26.37 58.52-26.12L58.52-26.12Q59.57-25.32 60.29-24.61 61.01-23.9 61.52-23.22L61.52-23.22Q61.77-22.9 61.77-22.31L61.77-22.31 61.77-10.6Q61.77-5.3 65.96-5.3L65.96-5.3Q68.04-5.3 69.28-6.75 70.53-8.2 70.53-10.69L70.53-10.69 70.53-22.31Q70.53-22.9 70.77-23.22L70.77-23.22Q71.8-24.56 73.78-26.12L73.78-26.12Q74.12-26.37 74.39-26.37L74.39-26.37Q74.7-26.37 75-26.12L75-26.12Q76.05-25.32 76.77-24.61 77.49-23.9 78-23.22L78-23.22Q78.24-22.9 78.24-22.31L78.24-22.31 78.24-1.12Q78.24-0.66 77.93-0.33 77.61 0 77.12 0L77.12 0 73.46 0Q73.07 0 72.76-0.11 72.46-0.22 72.19-0.54L72.19-0.54 70.68-2.49 70.51-2.49Q70.11-1.93 69.3-1.2 68.48-0.46 66.93 0.07 65.38 0.61 62.77 0.61ZM109-15.55L109-15.55 109-1.29Q109-0.56 108.7-0.28 108.39 0 107.66 0L107.66 0 102.63 0Q101.9 0 101.59-0.28 101.29-0.56 101.29-1.29L101.29-1.29 101.29-14.28Q101.29-16.94 100.17-18.16 99.04-19.38 97.11-19.38L97.11-19.38Q95.19-19.38 94.15-18.55 93.11-17.72 92.55-16.46L92.55-16.46 92.55-1.29Q92.55-0.56 92.24-0.28 91.94 0 91.21 0L91.21 0 86.18 0Q85.44 0 85.14-0.28 84.83-0.56 84.83-1.29L84.83-1.29 84.83-21.75Q84.83-22.34 85.08-22.66L85.08-22.66Q85.59-23.34 86.31-24.05 87.03-24.76 88.08-25.56L88.08-25.56Q88.4-25.81 88.69-25.81L88.69-25.81Q88.96-25.81 89.3-25.56L89.3-25.56Q90.33-24.76 91.06-24.02 91.79-23.29 92.35-22.51L92.35-22.51 92.48-22.51Q92.89-23.05 93.72-23.77 94.55-24.49 96.05-25.05 97.55-25.61 99.9-25.61L99.9-25.61Q102.19-25.61 104.27-24.68 106.34-23.75 107.67-21.56 109-19.36 109-15.55ZM124.43 0.61L124.43 0.61Q121.18 0.61 118.9-0.99 116.62-2.59 115.43-5.41 114.25-8.23 114.25-11.91L114.25-11.91Q114.25-16.77 115.97-19.79 117.69-22.8 120.83-24.22 123.97-25.63 128.24-25.63L128.24-25.63Q129.7-25.63 130.67-25.49 131.63-25.34 132.05-25.22L132.05-25.22 132.05-34.33Q132.05-34.91 132.29-35.23L132.29-35.23Q133.32-36.57 135.3-38.13L135.3-38.13Q135.64-38.38 135.91-38.38L135.91-38.38Q136.22-38.38 136.52-38.13L136.52-38.13Q137.57-37.33 138.29-36.62 139.01-35.91 139.52-35.23L139.52-35.23Q139.76-34.91 139.76-34.33L139.76-34.33 139.76-1.12Q139.76-0.66 139.45-0.33 139.13 0 138.64 0L138.64 0 135 0Q134.61 0 134.31-0.11 134-0.22 133.73-0.54L133.73-0.54 132.22-2.49 132.05-2.49Q131.73-2 130.91-1.26 130.1-0.51 128.54 0.05 126.99 0.61 124.43 0.61ZM126.8-5.64L126.8-5.64Q129-5.64 130.25-6.47 131.51-7.3 132.05-8.57L132.05-8.57 132.05-18.8Q131.66-19.04 130.75-19.38 129.85-19.73 128.22-19.73L128.22-19.73Q125.19-19.73 123.67-17.75 122.16-15.77 122.16-12.43L122.16-12.43Q122.16-8.96 123.43-7.3 124.7-5.64 126.8-5.64ZM158.61 0.61L158.61 0.61Q154.48 0.61 151.43-0.72 148.38-2.05 146.69-4.86 145.01-7.67 145.01-12.11L145.01-12.11Q145.01-18.77 148.43-22.19 151.85-25.61 157.51-25.61L157.51-25.61Q161.2-25.61 163.75-24.29 166.3-22.97 167.63-20.65 168.96-18.33 168.96-15.36L168.96-15.36Q168.96-12.45 167.47-11.3 165.98-10.16 163.12-10.16L163.12-10.16 152.65-10.16Q152.85-7.64 154.49-6.32 156.14-5 158.97-5L158.97-5Q161.22-5 162.58-5.68 163.93-6.35 164.47-6.74L164.47-6.74Q164.93-7.08 165.52-7.06L165.52-7.06Q165.98-7.06 166.85-6.87 167.71-6.69 168.57-6.2L168.57-6.2Q169.18-5.88 169.18-5.32L169.18-5.32Q169.18-5 169.06-4.42L169.06-4.42Q168.98-4.08 168.81-3.43 168.64-2.78 168.37-2.22L168.37-2.22Q168.23-1.95 167.91-1.71L167.91-1.71Q167.42-1.37 166.34-0.81 165.25-0.24 163.37 0.18 161.49 0.61 158.61 0.61ZM152.6-15.16L152.6-15.16 160.56-15.16Q161.81-15.16 161.81-16.31L161.81-16.31Q161.81-18.04 160.72-19.23 159.63-20.41 157.46-20.41L157.46-20.41Q155.09-20.41 153.98-18.9 152.87-17.38 152.6-15.16ZM182.04-22.17L182.04-20.36 182.14-20.36Q183.97-25.44 188.73-25.44L188.73-25.44Q189.34-25.44 189.73-25.38 190.12-25.32 190.27-25.27L190.27-25.27Q190.64-25.15 190.64-24.71L190.64-24.71 190.64-18.82Q190.64-18.07 189.76-18.41L189.76-18.41Q189.47-18.53 188.92-18.66 188.37-18.8 187.39-18.8L187.39-18.8Q184.88-18.8 183.46-16.96 182.04-15.11 182.04-11.94L182.04-11.94 182.04-1.29Q182.04-0.56 181.74-0.28 181.43 0 180.7 0L180.7 0 175.67 0Q174.94 0 174.63-0.28 174.33-0.56 174.33-1.29L174.33-1.29 174.33-21.75Q174.33-22.34 174.57-22.66L174.57-22.66Q175.09-23.34 175.81-24.05 176.53-24.76 177.58-25.56L177.58-25.56Q177.77-25.71 177.97-25.76 178.16-25.81 178.31-25.81L178.31-25.81Q178.65-25.81 178.99-25.56L178.99-25.56Q181.02-23.97 181.82-22.85L181.82-22.85Q182.04-22.56 182.04-22.17L182.04-22.17ZM205.75 0.61L205.75 0.61Q202.6 0.61 200.45 0.15 198.3-0.32 196.84-1 195.37-1.68 194.27-2.37L194.27-2.37 194.27-34.33Q194.27-34.91 194.52-35.23L194.52-35.23Q195.54-36.57 197.52-38.13L197.52-38.13Q197.86-38.38 198.13-38.38L198.13-38.38Q198.45-38.38 198.74-38.13L198.74-38.13Q199.79-37.33 200.51-36.62 201.23-35.91 201.74-35.23L201.74-35.23Q201.99-34.91 201.99-34.33L201.99-34.33 201.99-22.49 202.08-22.49Q203.06-23.73 204.79-24.67 206.53-25.61 209.63-25.61L209.63-25.61Q213.1-25.61 215.34-24.01 217.59-22.41 218.69-19.62 219.78-16.82 219.78-13.21L219.78-13.21Q219.78-9.3 218.49-6.16 217.2-3.03 214.13-1.21 211.07 0.61 205.75 0.61ZM206.06-5.3L206.06-5.3Q208.9-5.3 210.39-7.19 211.87-9.08 211.87-12.6L211.87-12.6Q211.87-16.16 210.54-17.77 209.21-19.38 206.7-19.38L206.7-19.38Q204.67-19.38 203.61-18.55 202.55-17.72 201.99-16.46L201.99-16.46 201.99-6.37Q202.52-5.98 203.51-5.64 204.5-5.3 206.06-5.3ZM233.75 0.61L233.75 0.61Q225.06 0.61 225.06-9.91L225.06-9.91 225.03-22.31Q225.03-22.9 225.28-23.22L225.28-23.22Q226.3-24.56 228.28-26.12L228.28-26.12Q228.62-26.37 228.89-26.37L228.89-26.37Q229.21-26.37 229.5-26.12L229.5-26.12Q230.55-25.32 231.27-24.61 231.99-23.9 232.5-23.22L232.5-23.22Q232.75-22.9 232.75-22.31L232.75-22.31 232.75-10.6Q232.75-5.3 236.95-5.3L236.95-5.3Q239.02-5.3 240.27-6.75 241.51-8.2 241.51-10.69L241.51-10.69 241.51-22.31Q241.51-22.9 241.75-23.22L241.75-23.22Q242.78-24.56 244.76-26.12L244.76-26.12Q245.1-26.37 245.37-26.37L245.37-26.37Q245.69-26.37 245.98-26.12L245.98-26.12Q247.03-25.32 247.75-24.61 248.47-23.9 248.98-23.22L248.98-23.22Q249.23-22.9 249.23-22.31L249.23-22.31 249.23-1.12Q249.23-0.66 248.91-0.33 248.59 0 248.1 0L248.1 0 244.44 0Q244.05 0 243.74-0.11 243.44-0.22 243.17-0.54L243.17-0.54 241.66-2.49 241.49-2.49Q241.1-1.93 240.28-1.2 239.46-0.46 237.91 0.07 236.36 0.61 233.75 0.61ZM256.6 11.74L256.6 11.74Q255.69 11.74 255.23 11.56 254.77 11.38 254.45 11.11L254.45 11.11Q253.81 10.5 253.08 9.4L253.08 9.4Q252.91 9.13 252.71 8.78 252.52 8.42 252.52 8.18L252.52 8.18Q252.52 7.91 252.64 7.69 252.76 7.47 252.93 7.28L252.93 7.28Q253.32 6.76 253.89 6.21 254.45 5.66 254.84 5.35L254.84 5.35Q255.11 5.13 255.28 5.07 255.45 5 255.57 5L255.57 5Q255.69 5 255.94 5.05 256.18 5.1 256.67 5.1L256.67 5.1Q258.35 5.1 260.19 4 262.02 2.91 263.8-0.12L263.8-0.12Q261.94-1.83 260.15-4.41 258.35-6.98 256.91-10 255.47-13.01 254.61-16.02 253.74-19.02 253.74-21.56L253.74-21.56Q253.74-22.09 254.01-22.41L254.01-22.41Q255.13-23.8 257.21-25.32L257.21-25.32Q257.57-25.56 257.87-25.56L257.87-25.56Q258.18-25.56 258.52-25.32L258.52-25.32Q259.65-24.51 260.42-23.8 261.19-23.1 261.72-22.41L261.72-22.41Q261.99-22.09 261.99-21.51L261.99-21.51 261.99-21.61Q261.99-19.68 262.46-17.53 262.92-15.38 263.73-13.34 264.53-11.3 265.53-9.66 266.53-8.01 267.61-7.03L267.61-7.03 267.73-7.03Q268.22-7.96 268.82-9.7 269.41-11.45 269.95-13.59 270.49-15.72 270.83-17.83 271.17-19.95 271.17-21.58L271.17-21.58 271.17-21.51Q271.17-22.09 271.42-22.41L271.42-22.41Q271.98-23.1 272.73-23.8 273.49-24.51 274.56-25.32L274.56-25.32Q274.91-25.56 275.2-25.56L275.2-25.56Q275.54-25.56 275.83-25.32L275.83-25.32Q276.93-24.51 277.69-23.8 278.45-23.1 278.98-22.41L278.98-22.41Q279.23-22.09 279.23-21.53L279.23-21.53Q279.2-19.31 278.37-15.73 277.54-12.16 275.96-7.98 274.37-3.81 272.1 0.2L272.1 0.2Q268.71 6.23 264.77 8.98 260.84 11.74 256.6 11.74ZM279.23-21.58L279.23-21.58 279.23-21.51 279.23-21.53Q279.23-21.56 279.23-21.58ZM253.74-21.51L253.74-21.58 253.74-21.56 253.74-21.51Z" opacity="1" transform="matrix(1,0,0,1,0,0)" fill="white" class="wordmark-text-0" id="SvgjsPath1376"></path></svg></g></svg></g></svg></g></svg></g><g transform="matrix(1,0,0,1,110.87720776970612,0)"><svg viewBox="0 0 173.76558446058775 173.76558446058775" height="173.76558446058775" width="173.76558446058775"><g><svg></svg></g><g id="SvgjsG1375"><svg viewBox="0 0 173.76558446058775 173.76558446058775" height="173.76558446058775" width="173.76558446058775"><g><path d="M0 86.883c0-47.984 38.899-86.883 86.883-86.883 47.984 0 86.883 38.899 86.883 86.883 0 47.984-38.899 86.883-86.883 86.883-47.984 0-86.883-38.899-86.883-86.883zM86.883 167.33c44.43 0 80.447-36.017 80.447-80.447 0-44.43-36.017-80.447-80.447-80.447-44.43 0-80.447 36.017-80.447 80.447 0 44.43 36.017 80.447 80.447 80.447z" fill="black" stroke="transparent"></path><ellipse rx="86.01396430799093" ry="86.01396430799093" cx="86.88279223029387" cy="86.88279223029387" fill="black" stroke="transparent" stroke-width="0" fill-opacity="1"></ellipse></g><g transform="matrix(1,0,0,1,36.603880280118354,39.683914344444645)"><svg viewBox="0 0 100.55782390035104 94.39775577169846" height="94.39775577169846" width="100.55782390035104"><g><svg xmlns:dc="http://purl.org/dc/elements/1.1/" xmlns:cc="http://creativecommons.org/ns#" xmlns:rdf="http://www.w3.org/1999/02/22-rdf-syntax-ns#" xmlns:svg="http://www.w3.org/2000/svg" xmlns="http://www.w3.org/2000/svg" xmlns:sodipodi="http://sodipodi.sourceforge.net/DTD/sodipodi-0.dtd" xmlns:inkscape="http://www.inkscape.org/namespaces/inkscape" preserveAspectRatio="xMidYMid" viewBox="0 0 62.75 58.906" version="1.1" x="0" y="0" height="94.39775577169846" width="100.55782390035104" class="icon-dxe-0" data-fill-palette-color="quaternary" id="SvgjsSvg1374"><path d="M23.813 0C22.985 0 22.75 0.671 22.75 1.5V7C22.75 7.183 22.784 7.37 22.844 7.531L19.78 8.094C19.065 8.22 18.75 8.834 18.75 9.563V19H11.156L8.937 9.938C8.714 8.428 6.597 6.967 4.5 6.967 2.026 6.969 0 9.01 0 11.532 0 13.081 0.778 14.522 2.063 15.375A1.476 1.476 0 0 0 4.124 14.969C4.583 14.279 4.408 13.333 3.719 12.875A1.62 1.62 0 0 1 3 11.531C3 10.651 3.666 9.97 4.5 9.97 5.181 9.969 5.811 10.369 6.031 10.594L14.906 47.188 15.594 50.78C15.729 51.487 16.344 52 17.063 52H20.03C20.211 55.846 23.391 58.906 27.281 58.906S34.351 55.846 34.531 52H43.125C43.304 55.846 46.485 58.906 50.375 58.906S57.445 55.846 57.625 52H60.813C61.64 52 62.75 51.329 62.75 50.5V40.5C62.75 39.671 61.64 39 60.813 39H54L62.594 21.156A1.54 1.54 0 0 0 62.5 19.688 1.5 1.5 0 0 0 61.219 19H54.53L49.72 8.125A1.53 1.53 0 0 0 48.875 7.313 1.5 1.5 0 0 0 47.719 7.375L38.656 11.531C38.716 11.37 38.75 11.183 38.75 11V1.5C38.75 0.671 37.64 0 36.813 0zM25.75 3H35.75V5.406A1.4 1.4 0 0 0 35.094 5.344L25.75 7.03zM33.438 8.719L30.844 18H21.75V10.813zM47.594 10.719L51.25 19H41.344L39.094 14.625zM35.75 11A1.48 1.48 0 0 0 36.75 12.406L36.406 12.562A1.48 1.48 0 0 0 35.625 13.439C35.492 13.825 35.498 14.26 35.688 14.625L37.968 19H33.689zM12.156 22H58.844L50.687 39H16.313zM16.97 42H59.75V49H57.125C56.06 46.312 53.438 44.406 50.375 44.406 47.302 44.406 44.683 46.328 43.625 49.031A1.6 1.6 0 0 0 43.313 49H34.03C32.966 46.312 30.344 44.406 27.281 44.406 24.208 44.406 21.59 46.328 20.531 49.031 20.461 49.021 20.385 49 20.313 49H18.438L17.813 46.375zM27.28 47.406C29.631 47.406 31.563 49.306 31.563 51.656S29.63 55.906 27.28 55.906A4.247 4.247 0 0 1 23.031 51.656C23.031 49.306 24.931 47.406 27.281 47.406M50.375 47.406C52.724 47.406 54.656 49.306 54.656 51.656S52.724 55.906 50.375 55.906A4.247 4.247 0 0 1 46.125 51.656C46.125 49.306 48.025 47.406 50.375 47.406" fill="black" fill-rule="evenodd"></path></svg></g></svg></g></svg></g></svg></g><g></g></svg></g><defs><mask></mask></defs></svg><rect width="350.65639205788506" height="247.2" fill="black" stroke="none" visibility="hidden"></rect></g></mask><linearGradient x1="0" x2="1" y1="0.578" y2="0.595" id="ba16ce7e-e68c-403c-947e-7bab3d3d8f5a"><stop stop-color="#dede50" offset="0"></stop><stop stop-color="#559c49" offset="1"></stop></linearGradient><rect width="350.65639205788506" height="247.2" fill="url(#ba16ce7e-e68c-403c-947e-7bab3d3d8f5a)" mask="url(#ac5c305c-9588-425b-a270-51935c5987b8)" data-fill-palette-color="primary"></rect></svg><rect width="350.65639205788506" height="247.2" fill="none" stroke="none" visibility="hidden"></rect></g></svg></g></svg>